#!OML:ASF X:\für Bonn\!DataBase\2005_08_11_Bastian_Final\c3d\Bastian.ASF
:FULLY-SPECIFIED
:DEGREES
91
root 1.04478 16.2687 -8.09192 153.505 -14.7089 -177.335
lowerback 18.1746 -4.05174 5.45048
upperback 12.8778 -7.45159 2.17145
thorax 3.57494 -4.70146 0.284145
lowerneck -0.950331 -6.59587 -2.08749
upperneck 0.671722 -8.96964 6.77303
head 0.80415 -4.49099 2.36891
rclavicle 8.15017e-015 -1.51076e-014
rhumerus 9.26795 31.8335 -85.678
rradius 117.603
rwrist 3.31857
rhand -26.383 8.32807
rfingers 7.12502
rthumb 0.175802 -21.6516
lclavicle 8.15017e-015 -1.51076e-014
lhumerus -0.700794 -50.0768 92.7262
lradius 115.141
lwrist 49.8735
lhand -17.9627 -23.2748
lfingers 7.12502
lthumb 8.3063 6.54187
rfemur -9.19693 -8.8551 26.0595
rtibia 48.7637
rfoot -188.564 -185.094
rtoes 9.66971
lfemur -7.67547 12.3396 -9.39976
ltibia 116.485
lfoot 18.9491 -7.16648
ltoes -23.638
92
root 1.03057 16.3075 -8.17972 151.337 -14.0648 -177.419
lowerback 20.3584 -3.52847 5.49809
upperback 13.4995 -6.93976 2.04029
thorax 3.18746 -4.58697 0.209416
lowerneck -0.585852 -6.73786 -2.15129
upperneck 1.03738 -9.19472 6.89992
head 0.878549 -4.60629 2.42345
rclavicle 7.55382e-015 -5.56597e-015
rhumerus 8.93179 31.515 -86.6439
rradius 117.274
rwrist 3.19908
rhand -27.0628 8.35417
rfingers 7.12502
rthumb -0.480729 -21.625
lclavicle 7.55382e-015 -5.56597e-015
lhumerus 0.0658753 -49.9371 92.1419
lradius 115.161
lwrist 49.1296
lhand -18.2855 -23.2095
lfingers 7.12502
lthumb 7.99477 6.61927
rfemur -5.74139 -8.73927 25.8617
rtibia 47.5528
rfoot -188.494 -184.911
rtoes 9.32102
lfemur -10.717 13.5744 -8.63883
ltibia 120.284
lfoot 17.695 -5.65783
ltoes -20.7085
93
root 1.01608 16.3553 -8.28355 149.215 -13.3307 -177.574
lowerback 22.3075 -2.92847 5.52049
upperback 14.1675 -6.38206 1.91936
thorax 3.00593 -4.45713 0.0954548
lowerneck -0.18937 -6.87853 -2.23614
upperneck 1.36896 -9.42011 7.04066
head 0.939284 -4.72397 2.48844
rclavicle 7.95139e-015 3.65764e-014
rhumerus 8.65153 31.142 -87.5029
rradius 116.981
rwrist 3.27448
rhand -27.6445 8.20492
rfingers 7.12502
rthumb -1.04253 -21.7723
lclavicle 7.95139e-015 3.65764e-014
lhumerus 0.816861 -49.8102 91.5646
lradius 115.145
lwrist 48.2828
lhand -18.6093 -23.1649
lfingers 7.12502
lthumb 7.68231 6.67558
rfemur -2.23868 -8.56152 25.6629
rtibia 46.3231
rfoot -188.466 -184.693
rtoes 8.88427
lfemur -13.8353 14.9001 -7.88281
ltibia 123.461
lfoot 16.6595 -4.064
ltoes -17.2182
94
root 1.00054 16.3862 -8.38889 146.962 -12.4611 -177.816
lowerback 24.4039 -2.25076 5.58023
upperback 14.8689 -5.76554 1.80215
thorax 2.8281 -4.31912 -0.0638508
lowerneck 0.20398 -7.01479 -2.49328
upperneck 1.72425 -9.65164 7.33033
head 1.02746 -4.84648 2.63206
rclavicle 1.51076e-014 3.57812e-014
rhumerus 8.41207 30.7332 -88.2882
rradius 116.755
rwrist 3.45463
rhand -28.0315 7.88918
rfingers 7.12502
rthumb -1.41629 -22.0859
lclavicle 1.51076e-014 3.57812e-014
lhumerus 1.64764 -49.6821 90.9215
lradius 115.086
lwrist 47.5044
lhand -18.835 -23.1573
lfingers 7.12502
lthumb 7.46443 6.69104
rfemur 1.36516 -8.22874 25.4773
rtibia 45.1149
rfoot -188.417 -184.505
rtoes 8.59953
lfemur -17.1049 16.2746 -7.23219
ltibia 126.086
lfoot 15.8316 -2.68805
ltoes -14.149
95
root 0.979396 16.4028 -8.49398 144.62 -11.4402 -178.273
lowerback 26.6108 -1.45357 5.58777
upperback 15.6524 -5.08704 1.69049
thorax 2.74299 -4.18698 -0.231745
lowerneck 0.474844 -7.13051 -2.9107
upperneck 2.06764 -9.85657 7.67095
head 1.1456 -4.95401 2.81764
rclavicle 2.5842e-015 1.74931e-014
rhumerus 8.37908 30.2931 -88.8559
rradius 116.533
rwrist 3.66846
rhand -28.2572 7.51563
rfingers 7.12502
rthumb -1.63435 -22.4579
lclavicle 2.5842e-015 1.74931e-014
lhumerus 2.72689 -49.4612 90.1282
lradius 114.994
lwrist 46.814
lhand -18.9815 -23.0991
lfingers 7.12502
lthumb 7.323 6.75416
rfemur 5.03731 -7.74138 25.164
rtibia 43.9981
rfoot -188.364 -184.22
rtoes 8.33634
lfemur -20.5711 17.6882 -6.97532
ltibia 128.086
lfoot 14.6955 -1.91098
ltoes -14.2746
96
root 0.952783 16.4155 -8.59719 142.327 -10.2434 -178.982
lowerback 28.8452 -0.523819 5.56779
upperback 16.4328 -4.29838 1.58229
thorax 2.69496 -4.02244 -0.440005
lowerneck 0.669195 -7.25877 -3.48199
upperneck 2.43902 -10.0835 8.0515
head 1.30172 -5.07157 3.04124
rclavicle -2.10712e-014 1.90833e-014
rhumerus 8.42695 29.8577 -89.2181
rradius 116.327
rwrist 3.91882
rhand -28.3584 7.04811
rfingers 7.12502
rthumb -1.73205 -22.9246
lclavicle -2.10712e-014 1.90833e-014
lhumerus 3.9781 -49.2327 89.217
lradius 114.882
lwrist 46.2677
lhand -19.0887 -23.1106
lfingers 7.12502
lthumb 7.21952 6.74626
rfemur 8.59519 -7.0036 24.7644
rtibia 43.0252
rfoot -188.358 -183.877
rtoes 8.25923
lfemur -24.3042 19.1421 -7.105
ltibia 129.399
lfoot 13.8351 -1.56638
ltoes -15.3925
97
root 0.921361 16.427 -8.69877 140.222 -8.93985 -179.793
lowerback 30.9115 0.443525 5.64385
upperback 17.1804 -3.47692 1.46707
thorax 2.73124 -3.83999 -0.763562
lowerneck 0.747305 -7.36869 -4.10366
upperneck 2.85147 -10.2911 8.45014
head 1.49864 -5.17755 3.27713
rclavicle 1.64991e-014 7.95139e-015
rhumerus 8.58148 29.3954 -89.4398
rradius 116.141
rwrist 4.06165
rhand -28.3039 6.60092
rfingers 7.12502
rthumb -1.67942 -23.3722
lclavicle 1.64991e-014 7.95139e-015
lhumerus 5.3272 -48.9886 88.1738
lradius 114.806
lwrist 45.846
lhand -19.1011 -23.1055
lfingers 7.12502
lthumb 7.20751 6.75174
rfemur 11.8599 -6.20417 24.3516
rtibia 42.1817
rfoot -188.373 -183.363
rtoes 8.23744
lfemur -28.4309 20.3916 -7.52837
ltibia 130.015
lfoot 12.8889 -1.89136
ltoes -16.7918
98
root 0.887118 16.4389 -8.79821 138.466 -7.5997 -180.638
lowerback 33.1106 1.35125 5.81722
upperback 17.6948 -2.64876 1.31853
thorax 2.50976 -3.63911 -1.09619
lowerneck 0.813268 -7.44656 -4.83481
upperneck 3.24645 -10.456 8.86312
head 1.70134 -5.26363 3.54177
rclavicle -9.93923e-016 -1.74931e-014
rhumerus 8.71257 29.0511 -89.5069
rradius 115.977
rwrist 4.15488
rhand -28.1536 6.22354
rfingers 7.12502
rthumb -1.53424 -23.7507
lclavicle -9.93923e-016 -1.74931e-014
lhumerus 6.69818 -48.6835 87.1388
lradius 114.756
lwrist 45.5345
lhand -19.0651 -22.9477
lfingers 7.12502
lthumb 7.24227 6.9084
rfemur 14.6312 -5.45766 23.935
rtibia 41.47
rfoot -188.408 -182.699
rtoes 8.3287
lfemur -33.2336 21.24 -8.29116
ltibia 129.927
lfoot 12.2056 -2.49801
ltoes -19.4167
